<?xml version="1.0" standalone="no"?>
<!DOCTYPE svg PUBLIC "-//W3C//DTD SVG 20010904//EN"
 "http://www.w3.org/TR/2001/REC-SVG-20010904/DTD/svg10.dtd">
<svg version="1.0" xmlns="http://www.w3.org/2000/svg"
 width="1167.000000pt" height="1465.000000pt" viewBox="0 0 1167.000000 1465.000000"
 preserveAspectRatio="xMidYMid meet">

<g transform="translate(0.000000,1465.000000) scale(0.100000,-0.100000)"
fill="#000000" stroke="none">
<path d="M650 14610 c0 -55 45 -103 136 -147 73 -34 90 -54 117 -135 7 -21 69
-61 122 -78 22 -7 53 -19 69 -27 81 -41 302 12 390 94 36 33 82 105 97 152 6
20 25 54 40 75 18 25 29 52 29 73 l0 33 -500 0 -500 0 0 -40z"/>
<path d="M2560 14604 c0 -38 5 -50 33 -75 17 -17 47 -37 66 -45 19 -8 50 -33
70 -56 19 -23 55 -54 80 -70 39 -24 55 -28 117 -28 60 0 77 4 110 26 98 65
190 180 218 272 l7 22 -350 0 -351 0 0 -46z"/>
<path d="M4716 14641 c-3 -4 -30 -11 -61 -14 -105 -11 -163 -70 -151 -156 19
-134 19 -138 -3 -170 -83 -117 -69 -208 44 -272 30 -17 55 -35 55 -40 0 -6 11
-21 25 -34 17 -18 35 -25 64 -25 27 0 49 -8 68 -24 64 -53 91 -56 209 -25 44
11 107 26 141 34 76 17 94 26 127 66 30 35 34 85 14 181 -12 57 -11 58 15 86
37 38 34 71 -8 122 -26 32 -35 51 -35 79 0 78 -62 129 -158 130 -38 1 -45 5
-63 36 l-21 35 -128 0 c-71 0 -131 -4 -134 -9z"/>
<path d="M8127 14633 c-8 -10 -19 -31 -23 -48 -12 -50 -43 -116 -69 -146 -13
-16 -27 -49 -31 -74 -5 -39 -3 -51 19 -84 25 -38 114 -119 153 -139 12 -6 49
-16 83 -21 34 -6 87 -22 118 -36 69 -31 111 -32 171 -1 58 29 106 77 169 169
54 78 62 130 29 180 -15 23 -18 44 -17 122 l2 95 -294 0 c-267 0 -295 -2 -310
-17z"/>
<path d="M9959 14634 c-9 -8 -40 -19 -70 -23 -61 -8 -111 -31 -152 -70 -41
-38 -57 -73 -57 -128 0 -38 6 -56 28 -83 31 -37 52 -73 52 -88 0 -4 -15 -26
-34 -48 -42 -49 -61 -110 -46 -151 15 -37 66 -90 111 -113 20 -11 51 -42 72
-75 65 -96 121 -115 212 -70 28 14 59 25 69 25 11 0 45 -25 77 -55 47 -45 64
-55 92 -55 55 0 108 27 162 84 34 35 76 64 130 89 142 68 159 96 151 241 -6
98 -5 104 19 136 38 52 36 59 -37 169 -10 14 -18 36 -18 48 0 12 -19 58 -41
102 l-42 81 -331 0 c-288 0 -334 -2 -347 -16z"/>
<path d="M3350 13822 c-19 -10 -49 -27 -67 -37 -30 -19 -33 -19 -86 -2 -63 20
-88 14 -128 -29 -57 -64 -89 -150 -89 -241 0 -63 17 -101 71 -160 43 -47 51
-91 24 -127 -20 -27 -19 -65 5 -103 25 -42 68 -63 126 -63 45 0 50 -3 123 -76
42 -42 91 -83 108 -90 39 -17 136 -9 171 13 20 12 31 12 71 2 64 -16 89 -8
145 48 57 58 76 110 56 156 -7 18 -15 51 -17 74 -4 36 0 49 26 85 60 81 34
140 -80 177 -39 13 -59 43 -59 92 0 78 -63 149 -134 149 -48 0 -80 19 -101 60
-18 34 -70 76 -105 85 -16 3 -38 -1 -60 -13z"/>
<path d="M6755 13826 c-43 -19 -79 -59 -109 -121 -14 -30 -35 -59 -47 -66 -12
-6 -41 -29 -65 -51 -52 -48 -74 -109 -74 -208 0 -97 33 -146 132 -195 82 -40
173 -104 196 -136 8 -12 30 -27 48 -35 68 -28 133 -12 202 50 43 39 65 43 136
25 58 -14 105 6 145 62 42 58 43 110 2 140 l-30 22 33 38 c36 43 56 97 56 153
0 26 -11 54 -38 94 -21 31 -44 76 -50 98 -20 68 -88 122 -136 108 -11 -3 -52
-20 -89 -37 l-68 -30 -27 22 c-99 80 -151 96 -217 67z"/>
<path d="M48 13614 l-48 -15 0 -464 c0 -256 2 -465 5 -465 3 0 32 14 65 30 48
24 72 30 126 30 37 0 85 5 107 12 76 23 226 187 255 278 6 19 10 62 10 96 -1
50 3 67 25 100 36 52 35 94 -2 136 -16 18 -34 52 -41 74 -26 88 -77 112 -170
79 -23 -8 -47 -15 -52 -15 -5 0 -38 27 -73 60 -57 55 -104 81 -145 79 -8 0
-36 -7 -62 -15z"/>
<path d="M11620 13559 c-81 -72 -119 -79 -202 -38 -69 35 -151 19 -200 -39
-20 -24 -28 -48 -33 -97 -7 -64 -8 -66 -56 -101 -73 -53 -95 -110 -69 -178 16
-43 82 -107 138 -134 58 -27 67 -38 77 -97 23 -126 103 -183 191 -136 51 28
59 27 82 -12 10 -18 35 -41 55 -50 72 -35 67 -70 67 453 0 259 -1 470 -2 470
-2 0 -23 -19 -48 -41z"/>
<path d="M1730 13506 c-66 -25 -135 -64 -160 -91 -23 -25 -25 -33 -23 -113 2
-66 -1 -94 -16 -126 -46 -101 -52 -145 -27 -194 20 -38 124 -135 171 -160 22
-11 52 -36 67 -55 53 -68 125 -82 190 -35 l31 21 49 -27 c54 -31 80 -30 116 4
18 17 22 31 22 86 0 64 0 65 50 116 70 72 79 122 25 146 -31 14 -31 29 -4 85
28 58 20 90 -34 140 -53 49 -100 73 -161 82 -38 6 -58 17 -95 51 -74 70 -140
93 -201 70z"/>
<path d="M5279 13055 c-14 -8 -45 -39 -68 -70 l-43 -56 -63 6 c-55 6 -69 4
-104 -16 -63 -35 -84 -96 -59 -165 10 -30 9 -37 -17 -76 -41 -60 -39 -100 8
-176 20 -33 37 -66 37 -74 0 -34 55 -98 98 -115 43 -16 43 -16 104 16 33 17
68 31 77 31 9 0 32 -16 50 -36 57 -60 97 -66 221 -35 134 34 192 61 243 111
54 54 61 90 26 147 l-22 34 31 32 c70 75 70 110 -2 181 -40 40 -58 67 -70 105
-34 114 -70 141 -163 122 -85 -17 -107 -14 -148 19 -42 34 -92 39 -136 15z"/>
<path d="M10106 12764 c-91 -27 -130 -54 -179 -121 -76 -106 -85 -152 -37
-198 29 -28 30 -32 30 -115 0 -80 2 -90 29 -127 60 -83 104 -99 187 -67 l43
16 45 -32 c94 -68 188 -46 279 66 137 167 160 233 103 293 -28 29 -28 32 -16
74 15 56 8 78 -37 118 -35 30 -39 31 -105 27 l-69 -5 -46 48 c-44 47 -49 49
-97 48 -28 -1 -87 -12 -130 -25z"/>
<path d="M8337 12579 c-49 -26 -83 -79 -102 -163 -9 -38 -31 -99 -50 -135 -48
-97 -53 -145 -21 -209 39 -76 90 -107 173 -104 55 1 72 -3 119 -29 50 -28 60
-31 112 -24 109 13 197 77 248 181 23 48 26 62 20 119 -5 55 -3 72 15 107 l22
42 -23 43 c-13 24 -27 43 -31 43 -5 0 -16 18 -25 40 -19 48 -66 90 -100 90
-14 0 -40 -11 -58 -25 -39 -30 -65 -32 -97 -6 -70 54 -137 64 -202 30z"/>
<path d="M2959 12173 c-23 -21 -59 -63 -80 -94 -45 -67 -79 -94 -132 -103 -21
-4 -52 -20 -69 -35 -28 -25 -32 -37 -39 -101 -10 -87 3 -155 33 -187 21 -22
139 -85 185 -98 13 -3 41 -22 64 -41 46 -38 63 -41 117 -18 29 12 55 14 119 8
80 -6 82 -6 107 21 14 16 26 33 26 39 0 6 28 39 62 73 58 59 62 66 61 106 -1
23 -2 73 -2 111 -1 67 -2 69 -41 105 -36 32 -40 42 -40 82 0 33 -6 51 -19 63
-25 23 -87 45 -127 46 -16 0 -51 14 -77 30 -64 41 -97 39 -148 -7z"/>
<path d="M1309 11937 c-30 -18 -66 -41 -81 -51 -34 -22 -83 -16 -144 20 -70
41 -132 28 -192 -40 -30 -35 -52 -90 -52 -132 0 -12 -7 -38 -15 -57 -18 -43
-20 -149 -4 -180 6 -12 28 -38 48 -58 20 -19 56 -59 80 -88 48 -57 123 -101
176 -101 17 0 59 7 94 15 36 9 83 18 105 21 135 16 226 92 313 260 44 85 52
108 47 135 -8 40 -28 65 -69 86 -16 9 -50 39 -75 67 -97 109 -129 136 -162
136 -8 0 -39 -15 -69 -33z"/>
<path d="M6833 11882 c-37 -12 -112 -70 -133 -104 -25 -42 -25 -84 0 -147 l19
-49 -29 -41 c-16 -22 -41 -48 -55 -57 -13 -9 -36 -40 -50 -69 -23 -46 -25 -58
-16 -92 15 -55 62 -125 125 -186 49 -48 55 -57 65 -116 12 -72 38 -117 87
-150 26 -18 52 -24 116 -28 78 -5 86 -3 140 25 56 30 58 30 80 13 37 -29 118
-61 153 -61 37 0 89 32 155 95 25 24 71 59 102 79 148 93 157 202 33 377 -47
67 -55 84 -65 146 -11 67 -46 121 -102 158 -23 15 -59 45 -80 67 -38 39 -42
40 -88 35 -45 -5 -83 -22 -151 -64 -14 -9 -33 -14 -42 -10 -9 3 -39 37 -67 76
-72 99 -122 125 -197 103z"/>
<path d="M4300 11464 c-17 -15 -42 -48 -55 -73 -36 -71 -46 -77 -102 -56 -83
30 -118 30 -165 2 -77 -45 -109 -138 -72 -209 25 -49 20 -108 -15 -163 -63
-99 -49 -147 77 -275 91 -91 118 -100 187 -63 24 12 49 23 56 23 6 0 37 -27
69 -60 44 -46 64 -60 86 -60 45 1 105 33 154 84 l44 46 71 0 c111 1 190 47
245 144 48 83 36 163 -37 238 -33 34 -36 41 -34 92 3 93 -55 176 -122 176 -16
0 -51 -8 -78 -17 -45 -16 -49 -16 -68 1 -10 10 -36 49 -55 86 -20 38 -48 78
-63 89 -36 29 -85 27 -123 -5z"/>
<path d="M10705 11405 c-48 -27 -71 -34 -113 -35 -115 0 -157 -46 -147 -163 6
-68 5 -74 -23 -117 -17 -25 -35 -64 -41 -87 -10 -38 -9 -48 17 -105 22 -49 41
-72 83 -104 63 -48 91 -64 114 -64 9 0 33 -11 53 -25 52 -35 133 -35 185 1
l38 25 42 -19 c23 -11 57 -23 75 -27 57 -12 211 51 252 102 19 24 21 36 16 88
-5 55 -3 63 24 99 37 49 38 85 4 117 -22 20 -25 30 -20 64 4 33 -2 54 -36 124
-61 124 -114 148 -199 91 -24 -16 -53 -30 -63 -30 -11 0 -43 23 -72 50 -67 63
-101 66 -189 15z"/>
<path d="M9325 10849 c-4 -5 -17 -15 -28 -20 -12 -5 -33 -16 -46 -23 -16 -10
-32 -11 -55 -5 -47 14 -120 11 -142 -5 -13 -10 -19 -26 -19 -53 0 -41 2 -40
-102 -59 -63 -12 -87 -178 -40 -276 21 -43 22 -54 13 -115 -18 -130 13 -186
136 -248 97 -48 122 -46 199 15 34 28 72 50 83 51 35 1 61 8 120 29 92 35 110
86 121 342 5 142 5 147 -17 172 -13 15 -39 34 -58 44 -27 13 -36 24 -38 47 -5
53 -12 75 -32 95 -22 22 -84 28 -95 9z"/>
<path d="M535 10604 c-16 -8 -39 -24 -51 -35 -22 -21 -49 -25 -59 -9 -10 16
-68 11 -91 -8 -33 -26 -111 -138 -124 -176 -8 -26 -8 -43 4 -77 19 -52 20 -93
5 -121 -18 -34 6 -72 64 -103 29 -16 79 -47 112 -70 78 -54 166 -95 205 -95
33 0 67 15 124 54 21 14 58 26 93 31 86 10 131 25 164 56 39 37 40 103 3 167
l-27 45 22 44 c11 24 21 56 21 71 0 36 -45 107 -99 155 -50 45 -78 57 -135 57
-24 0 -63 7 -86 15 -55 19 -107 19 -145 -1z"/>
<path d="M2505 10381 c-16 -10 -41 -30 -55 -45 -22 -25 -28 -26 -78 -20 -61 7
-81 -5 -114 -71 -12 -22 -29 -51 -39 -64 -11 -13 -19 -40 -19 -60 0 -29 9 -44
52 -88 l52 -53 -22 -23 c-12 -13 -22 -36 -22 -50 0 -23 7 -31 43 -46 26 -11
53 -34 71 -59 44 -65 90 -77 218 -62 l103 12 50 53 c28 28 71 64 97 79 54 30
68 50 68 99 0 53 -22 114 -77 212 -65 116 -83 135 -127 135 -22 0 -51 12 -85
35 -58 40 -74 42 -116 16z"/>
<path d="M5562 10163 c-18 -9 -47 -37 -64 -62 -17 -25 -43 -59 -59 -76 -58
-63 -63 -128 -19 -265 32 -99 76 -177 118 -210 14 -11 63 -32 108 -46 143 -45
226 -18 320 104 35 46 36 49 31 113 -4 44 -1 83 9 115 8 26 14 62 14 81 0 71
-90 193 -143 193 -12 0 -41 -7 -64 -16 -43 -17 -43 -17 -79 12 -71 57 -79 63
-109 68 -18 4 -43 -1 -63 -11z"/>
<path d="M7424 9911 c-46 -28 -72 -67 -80 -119 -11 -76 -19 -89 -58 -96 -47
-9 -89 -46 -116 -102 -32 -64 -22 -103 37 -151 75 -61 103 -95 103 -125 0 -60
89 -102 242 -113 143 -11 178 10 302 174 62 83 70 120 39 186 -16 34 -16 39 0
84 29 82 24 102 -43 180 -74 86 -98 94 -174 57 -29 -14 -55 -26 -58 -26 -4 0
-29 16 -58 35 -59 40 -91 43 -136 16z"/>
<path d="M10867 9684 c-33 -31 -43 -35 -70 -29 -18 3 -53 9 -79 12 -44 5 -49
2 -91 -36 -24 -23 -53 -41 -64 -41 -34 0 -83 -21 -93 -40 -23 -43 -12 -87 35
-140 25 -28 45 -53 45 -56 0 -20 -28 -48 -70 -69 -57 -29 -70 -48 -70 -105 0
-57 23 -86 99 -125 36 -18 86 -54 110 -80 78 -82 71 -81 331 -60 101 8 110 13
171 73 31 31 77 76 103 99 38 35 46 48 46 78 0 20 -7 50 -16 66 -14 28 -14 33
6 73 25 52 18 76 -39 145 -29 35 -40 58 -46 97 -5 38 -14 59 -35 79 -33 32
-174 95 -210 95 -15 0 -41 -15 -63 -36z"/>
<path d="M8880 9086 c-99 -38 -94 -37 -139 -21 -104 36 -137 9 -181 -149 -34
-120 -40 -135 -81 -186 -39 -49 -72 -127 -65 -155 3 -12 31 -46 62 -74 56 -51
56 -52 49 -94 -5 -23 -9 -65 -9 -94 -1 -42 4 -56 24 -78 40 -44 82 -57 158
-50 62 6 70 4 101 -19 43 -32 94 -34 136 -6 24 16 40 19 80 15 97 -11 155 47
155 155 0 70 17 94 83 124 57 26 90 56 106 99 17 45 13 161 -8 224 -10 32 -26
84 -35 115 -19 66 -56 96 -121 99 -68 3 -110 18 -140 50 -56 59 -106 71 -175
45z"/>
<path d="M4315 9031 c-16 -4 -44 -15 -62 -24 -21 -11 -56 -17 -100 -17 -57 0
-75 -4 -106 -25 -20 -14 -37 -27 -38 -28 0 -1 -4 -38 -8 -82 -10 -86 0 -72
-114 -167 -66 -55 -107 -122 -107 -174 0 -58 34 -141 75 -184 27 -28 38 -51
51 -108 14 -62 23 -81 64 -125 43 -47 52 -52 101 -57 30 -3 74 -1 98 3 27 6
75 5 125 -1 68 -9 86 -8 114 5 42 20 99 86 107 125 5 19 18 36 37 47 76 41 86
55 90 134 3 62 8 81 33 117 60 85 65 96 65 127 0 33 -37 77 -119 143 -17 14
-67 77 -109 140 -57 83 -89 121 -118 137 -21 13 -41 22 -44 22 -3 -1 -18 -4
-35 -8z"/>
<path d="M463 8759 c-11 -4 -51 -28 -88 -54 -41 -28 -74 -44 -83 -40 -9 3 -34
8 -57 11 -110 14 -185 -137 -116 -234 27 -39 27 -44 -9 -64 -45 -26 -72 -75
-66 -122 4 -31 17 -51 68 -103 75 -77 169 -145 220 -162 48 -16 131 6 203 53
85 56 91 58 134 46 68 -18 133 21 152 92 10 39 -2 76 -48 150 -16 25 -16 27
11 68 37 55 29 87 -38 155 -28 28 -65 72 -82 97 -57 81 -144 128 -201 107z"/>
<path d="M6522 8734 c-19 -10 -51 -41 -72 -69 -29 -39 -50 -56 -87 -70 -95
-36 -123 -70 -123 -148 0 -34 7 -53 30 -82 17 -21 30 -44 30 -51 0 -7 -21 -20
-47 -28 -52 -18 -161 -104 -200 -159 -27 -38 -39 -100 -29 -143 4 -14 31 -52
60 -83 30 -31 64 -76 76 -101 34 -67 112 -152 167 -182 84 -46 202 -80 256
-74 76 8 143 51 190 121 45 67 51 73 87 81 129 28 176 64 206 158 20 64 11
114 -31 164 -14 17 -25 39 -25 49 0 11 22 47 49 81 78 97 80 166 7 255 -40 49
-56 86 -56 128 0 91 -86 135 -183 94 -56 -23 -77 -19 -124 27 -37 36 -49 42
-95 45 -36 3 -64 -2 -86 -13z"/>
<path d="M2455 8195 c-27 -7 -64 -14 -81 -14 -20 -1 -48 -14 -75 -36 -51 -40
-62 -42 -96 -15 -33 26 -63 25 -97 -1 -54 -43 -72 -120 -41 -179 38 -74 38
-78 -5 -105 -52 -33 -65 -58 -49 -96 11 -28 71 -69 100 -69 6 0 43 -23 82 -51
122 -89 204 -113 299 -86 29 8 73 18 98 22 90 15 120 33 146 91 18 42 35 61
77 89 52 34 77 68 77 101 0 22 -28 73 -65 119 -18 22 -36 50 -40 63 -11 37
-61 87 -107 108 -24 10 -61 31 -82 46 -42 30 -65 32 -141 13z"/>
<path d="M10304 7952 c-49 -32 -105 -68 -125 -80 -20 -12 -57 -44 -83 -72 -56
-60 -59 -90 -16 -145 42 -53 45 -75 20 -126 -27 -53 -24 -124 9 -190 32 -64
72 -92 140 -97 47 -4 62 -10 93 -39 55 -54 106 -56 201 -9 92 46 186 120 210
166 13 26 16 47 11 83 -6 45 -4 50 29 80 47 45 60 73 53 112 -5 24 -17 40 -40
54 -26 17 -35 30 -40 63 -16 96 -60 138 -148 138 -40 0 -47 4 -99 60 -74 80
-94 81 -215 2z"/>
<path d="M4873 7426 c-49 -40 -76 -50 -156 -56 -83 -7 -119 -25 -147 -73 -12
-22 -12 -32 -1 -69 28 -92 26 -103 -15 -139 -82 -72 -102 -97 -115 -137 -17
-57 2 -96 70 -148 63 -49 80 -83 79 -159 0 -70 11 -104 51 -152 64 -78 138
-94 215 -49 73 42 78 42 141 -13 69 -61 110 -76 182 -67 85 10 126 36 152 95
11 27 21 66 21 86 0 57 23 98 78 138 80 57 84 104 18 201 -30 44 -30 41 -12
121 15 73 8 108 -47 213 -37 71 -80 112 -118 112 -9 0 -36 -9 -60 -20 -24 -11
-53 -20 -63 -20 -12 0 -51 33 -96 80 -68 71 -80 80 -112 80 -24 0 -47 -8 -65
-24z"/>
<path d="M8772 7255 c-17 -14 -42 -45 -56 -68 -36 -63 -50 -72 -78 -53 -39 27
-82 21 -114 -18 -145 -174 -165 -245 -94 -335 22 -28 45 -51 50 -51 5 0 14
-17 20 -38 16 -63 40 -77 123 -75 63 3 76 0 109 -24 36 -24 41 -25 79 -14 59
18 148 78 168 113 9 16 29 46 44 66 40 51 67 110 67 146 1 17 7 49 15 71 18
49 19 85 3 122 -6 15 -13 43 -13 61 -1 19 -11 43 -23 55 -20 19 -24 20 -77 7
l-56 -13 -33 36 c-42 46 -89 50 -134 12z"/>
<path d="M7525 7088 c-215 -40 -279 -66 -322 -129 -37 -55 -83 -183 -83 -229
0 -49 40 -128 89 -175 42 -40 43 -40 119 -40 74 0 80 -2 137 -41 33 -22 75
-44 93 -47 44 -9 93 13 125 54 43 58 107 233 107 295 0 35 -47 164 -69 188
-10 12 -28 39 -40 62 -23 40 -67 75 -93 73 -7 -1 -35 -6 -63 -11z"/>
<path d="M1411 7035 c-18 -8 -61 -15 -94 -15 -59 0 -62 -1 -104 -46 l-43 -47
-62 7 c-52 5 -69 3 -95 -13 -46 -29 -52 -71 -18 -121 28 -40 26 -60 -10 -90
-24 -20 -47 -81 -40 -107 3 -13 18 -29 33 -37 48 -25 55 -39 41 -84 -14 -49
-1 -78 46 -98 18 -7 47 -32 65 -54 62 -78 126 -91 226 -46 l60 27 67 -26 c81
-30 121 -31 163 -6 40 24 69 95 61 147 -8 46 3 66 48 94 20 12 42 35 51 51 19
37 8 59 -53 114 l-45 40 17 30 c22 39 14 93 -19 126 -55 57 -143 137 -166 152
-30 21 -84 21 -129 2z"/>
<path d="M11157 6765 c-32 -19 -65 -35 -73 -35 -26 0 -72 -29 -92 -57 -14 -21
-21 -50 -24 -113 -4 -72 -9 -93 -36 -141 -39 -69 -40 -102 -3 -160 44 -69 183
-190 268 -233 39 -20 99 -20 133 -1 35 20 84 18 130 -5 68 -35 125 -23 183 38
l28 29 -3 244 c-3 211 -5 248 -21 276 -34 64 -100 82 -178 49 -45 -19 -62 -9
-109 64 -57 88 -110 100 -203 45z"/>
<path d="M0 6299 l1 -214 19 24 c28 33 35 69 20 105 -25 62 -24 83 9 132 17
26 31 56 31 66 0 11 -18 38 -40 60 l-40 41 0 -214z"/>
<path d="M2930 6295 c-81 -29 -108 -34 -188 -35 -101 0 -153 -15 -172 -49 -6
-12 -14 -51 -17 -87 -7 -72 -4 -69 -116 -113 -38 -15 -67 -67 -67 -119 0 -50
10 -73 56 -125 29 -32 34 -44 34 -87 0 -62 18 -92 71 -115 27 -12 47 -31 59
-54 50 -99 119 -110 233 -39 54 34 75 33 137 -8 111 -74 206 -30 378 175 45
53 52 68 52 104 0 29 -8 54 -25 79 -41 61 -47 84 -34 148 17 87 -6 126 -111
193 -26 17 -38 34 -48 72 -29 106 -79 118 -242 60z"/>
<path d="M6474 6151 c-71 -32 -148 -146 -169 -251 l-12 -55 -70 -11 c-86 -15
-124 -33 -158 -78 -57 -75 -54 -144 10 -205 42 -39 43 -53 9 -94 -21 -25 -25
-38 -21 -70 11 -80 93 -127 222 -127 l72 0 18 -41 c11 -23 35 -53 54 -67 30
-23 44 -27 103 -27 68 0 70 1 106 41 20 22 44 50 54 61 10 14 38 25 75 33 178
35 232 88 233 227 0 33 8 55 35 92 55 76 46 148 -29 230 -11 12 -50 38 -86 56
-62 31 -69 39 -128 132 -69 111 -94 130 -203 157 -78 19 -65 20 -115 -3z"/>
<path d="M4913 5528 l-43 -42 -45 22 c-25 12 -56 22 -68 22 -50 0 -97 -60 -97
-124 0 -44 -29 -66 -88 -66 -97 0 -133 -101 -76 -210 l26 -50 -21 -40 c-33
-63 -28 -107 18 -172 44 -61 79 -82 207 -122 97 -32 125 -28 189 25 61 51 80
55 139 28 48 -21 51 -21 81 -5 42 23 65 65 65 117 0 36 6 49 44 89 46 49 64
98 52 144 -3 13 -27 47 -52 75 -44 48 -46 54 -40 94 13 85 11 99 -23 126 -18
14 -57 50 -87 79 -48 46 -60 52 -97 52 -36 0 -48 -6 -84 -42z"/>
<path d="M8134 5489 c-41 -12 -100 -78 -113 -126 -6 -23 -30 -59 -59 -89 -64
-67 -80 -124 -62 -220 16 -85 38 -109 113 -123 36 -6 70 -21 89 -36 16 -14 33
-25 36 -26 4 0 52 -2 107 -3 144 -4 168 9 267 149 l50 70 -6 76 c-8 100 -30
173 -65 212 -27 29 -33 31 -99 32 -65 0 -73 2 -104 31 -54 52 -101 68 -154 53z"/>
<path d="M10173 5386 c-18 -8 -52 -35 -75 -60 -46 -48 -116 -85 -159 -86 -25
0 -91 -41 -116 -71 -6 -8 -23 -49 -37 -91 -15 -43 -35 -92 -45 -110 -11 -18
-22 -55 -26 -83 -12 -92 31 -152 146 -203 69 -31 81 -46 109 -137 18 -59 36
-82 81 -105 48 -25 71 -20 119 25 57 53 76 59 108 37 15 -11 36 -29 46 -41 15
-17 31 -21 78 -21 50 0 67 5 104 30 24 17 60 56 80 87 40 62 62 84 114 112 19
11 53 36 74 55 l39 36 -6 75 c-6 68 -5 78 18 111 42 62 29 121 -40 172 -48 35
-53 50 -35 111 12 41 -6 79 -58 127 -64 59 -120 54 -200 -16 -24 -22 -55 -40
-67 -40 -12 0 -53 20 -92 45 -81 52 -115 61 -160 41z"/>
<path d="M981 5019 c-30 -18 -44 -20 -102 -14 -100 10 -128 -11 -251 -185 -65
-93 -88 -143 -88 -191 0 -38 5 -47 50 -88 32 -29 50 -54 50 -69 0 -34 46 -101
76 -108 14 -4 49 -4 77 0 42 4 58 2 82 -14 69 -45 157 -13 237 87 80 99 83
104 106 160 30 70 29 166 -1 253 -25 68 -86 164 -117 180 -30 16 -83 11 -119
-11z"/>
<path d="M7237 4560 c-21 -12 -53 -42 -71 -68 -19 -26 -48 -57 -65 -70 -52
-38 -63 -72 -59 -181 4 -114 15 -135 121 -213 37 -27 71 -57 76 -66 15 -27
118 -28 176 -2 26 12 73 24 104 27 93 9 142 54 182 169 11 32 32 77 45 100 30
50 30 83 3 137 -56 108 -98 132 -175 98 -49 -22 -89 -27 -98 -12 -4 5 -34 28
-68 51 -74 51 -118 58 -171 30z"/>
<path d="M2358 4511 c-16 -8 -37 -26 -46 -39 -9 -14 -49 -58 -88 -96 -90 -90
-97 -103 -88 -172 6 -51 4 -59 -23 -97 -63 -89 -56 -125 41 -223 39 -40 85
-87 103 -107 40 -43 82 -52 148 -32 l50 14 40 -39 c44 -43 80 -60 128 -60 25
0 41 11 86 60 51 54 61 60 106 66 28 3 60 7 72 10 25 5 43 49 43 105 0 29 9
51 35 85 50 66 43 137 -18 177 -18 12 -26 29 -32 64 -9 66 -38 128 -68 148
-14 9 -55 21 -92 27 -64 11 -69 14 -101 59 -19 25 -47 52 -62 58 -37 15 -198
9 -234 -8z"/>
<path d="M9181 4085 l-74 -35 -54 20 c-29 11 -76 20 -104 20 -42 0 -55 -5 -79
-28 -35 -36 -51 -92 -44 -157 5 -49 5 -51 -31 -75 -83 -54 -86 -105 -10 -162
33 -25 49 -44 46 -56 -2 -9 -5 -38 -8 -65 -5 -44 -2 -49 30 -80 54 -50 137
-120 166 -139 35 -24 93 -23 141 2 24 12 59 20 91 20 50 0 55 2 99 50 l46 50
67 0 c54 0 70 4 91 23 38 34 42 68 12 104 -32 38 -33 60 -2 102 28 37 40 81
32 108 -3 10 -24 28 -46 41 l-40 23 6 53 c6 49 4 54 -21 74 -15 12 -34 22 -42
22 -8 0 -32 20 -54 44 -37 40 -99 76 -132 76 -7 0 -46 -16 -86 -35z"/>
<path d="M4411 3990 c-42 -6 -68 -40 -80 -104 -11 -62 -24 -74 -101 -92 -81
-19 -113 -38 -139 -85 -29 -50 -36 -114 -22 -193 15 -85 1 -121 -63 -165 -56
-39 -86 -94 -86 -158 0 -46 3 -50 64 -108 60 -57 64 -63 70 -117 14 -114 77
-160 191 -138 33 6 80 24 105 40 64 40 79 42 138 22 29 -11 65 -18 80 -16 15
1 35 2 44 3 9 1 30 13 47 27 23 19 31 34 31 59 0 59 16 85 50 85 36 0 105 33
113 54 3 7 9 47 13 87 5 59 15 89 45 145 33 59 39 80 39 130 0 105 -61 274
-119 328 -17 17 -50 39 -74 51 -31 16 -48 33 -65 68 -29 60 -67 81 -132 72
-26 -4 -63 -3 -81 2 -19 5 -49 6 -68 3z"/>
<path d="M490 3485 c-31 -17 -70 -19 -121 -4 -29 9 -45 9 -67 0 -42 -17 -89
-70 -105 -116 -17 -49 -45 -65 -114 -65 -89 0 -83 20 -83 -266 0 -233 1 -254
18 -266 10 -7 31 -37 47 -67 37 -67 58 -81 150 -97 40 -7 91 -23 112 -36 102
-63 142 -63 253 -5 45 24 103 62 130 85 27 23 66 52 87 64 101 57 117 104 58
169 -40 45 -43 60 -15 100 38 52 62 119 56 152 -9 47 -53 97 -105 119 -65 28
-78 43 -121 135 -29 61 -46 85 -68 97 -38 20 -79 20 -112 1z"/>
<path d="M6510 3478 c-32 -16 -57 -41 -87 -88 -33 -49 -60 -75 -116 -111 -39
-25 -81 -56 -91 -67 -29 -33 -33 -110 -7 -160 25 -48 26 -70 6 -96 -40 -52 -6
-132 75 -177 48 -27 53 -38 55 -115 1 -46 7 -69 25 -94 53 -74 160 -79 247
-10 36 28 61 25 123 -15 97 -62 187 -39 256 65 15 22 31 40 36 40 15 0 129
113 145 144 10 19 13 43 9 70 -3 22 -9 66 -12 96 -9 79 -36 134 -82 167 -51
35 -72 71 -72 120 0 86 -40 158 -101 183 -26 11 -45 11 -102 2 l-71 -13 -59
37 c-76 47 -119 52 -177 22z"/>
<path d="M11638 3263 c-43 -50 -50 -109 -18 -161 25 -41 25 -89 0 -127 -32
-48 -26 -98 15 -143 l34 -37 1 243 c0 133 -4 242 -8 242 -5 0 -16 -8 -24 -17z"/>
<path d="M10440 2983 c-25 -8 -76 -38 -114 -65 -67 -48 -71 -50 -120 -44 -41
5 -57 2 -83 -13 -65 -40 -81 -131 -34 -190 44 -55 47 -69 21 -115 -30 -57 -23
-81 42 -142 29 -27 70 -71 91 -97 49 -62 120 -107 167 -107 38 0 57 11 131 72
45 37 49 38 117 35 63 -2 73 1 97 23 38 35 55 73 55 120 0 45 -11 72 -43 108
l-21 22 42 35 c50 43 68 91 53 138 -19 55 -208 204 -289 227 -47 13 -57 12
-112 -7z"/>
<path d="M2455 2796 c-42 -22 -62 -26 -122 -24 -67 2 -74 0 -102 -26 -24 -23
-31 -41 -37 -85 -7 -60 -23 -99 -48 -120 -33 -28 -30 -73 10 -152 66 -130 97
-158 217 -197 94 -31 139 -29 206 9 77 44 121 81 191 161 70 81 75 107 34 184
-15 27 -28 68 -29 90 -4 53 -29 102 -58 114 -192 79 -195 80 -262 46z"/>
<path d="M8305 2506 c-16 -8 -50 -34 -75 -60 -25 -25 -51 -46 -58 -46 -7 0
-38 14 -70 31 -102 55 -172 27 -238 -94 -15 -29 -38 -65 -51 -80 -36 -44 -31
-85 17 -140 22 -25 40 -53 40 -64 1 -31 37 -100 61 -117 86 -60 105 -69 151
-70 34 0 56 7 85 27 47 33 60 33 113 6 49 -26 89 -21 147 19 22 15 65 44 95
64 58 39 112 109 123 159 5 22 0 41 -20 75 -23 39 -25 50 -16 71 32 70 -12
152 -92 174 -23 6 -60 22 -83 35 -46 27 -84 30 -129 10z"/>
<path d="M5210 2426 c-46 -12 -112 -50 -164 -93 -16 -14 -48 -33 -72 -44 -59
-28 -94 -83 -101 -158 -5 -52 -2 -65 20 -104 36 -61 142 -157 211 -191 48 -24
67 -28 109 -23 35 3 72 -1 112 -14 33 -10 74 -19 90 -19 44 0 98 41 151 116
120 168 123 295 10 367 -24 15 -47 27 -53 27 -5 0 -38 29 -74 64 -84 84 -138
100 -239 72z"/>
<path d="M1414 1847 c-11 -7 -41 -29 -66 -49 -53 -45 -67 -46 -116 -13 -56 38
-105 32 -160 -19 -13 -11 -42 -30 -65 -41 -28 -13 -53 -37 -74 -70 -43 -65
-44 -111 -3 -175 29 -46 30 -48 15 -83 -24 -59 -20 -99 16 -133 29 -28 34 -29
134 -30 l103 -1 61 -46 c74 -55 122 -65 225 -47 182 32 263 100 230 194 -20
56 -19 59 25 52 50 -8 91 21 87 62 -10 122 -97 246 -240 344 -102 69 -131 79
-172 55z"/>
<path d="M3590 1790 c-19 -10 -55 -39 -80 -64 -49 -51 -61 -53 -146 -31 -68
18 -103 7 -151 -48 -35 -40 -50 -83 -59 -167 -5 -50 -3 -60 29 -112 41 -67 54
-103 63 -175 11 -85 22 -92 136 -83 30 3 47 -4 92 -39 94 -70 126 -75 230 -36
110 41 158 70 216 130 30 31 76 69 101 85 60 39 75 67 60 113 -7 19 -21 43
-31 52 -27 24 -25 47 5 83 40 47 28 96 -25 106 -16 3 -43 9 -60 12 -25 5 -30
11 -35 42 -4 20 -12 48 -18 61 -16 32 -71 54 -115 46 -27 -5 -42 -1 -73 19
-46 31 -90 33 -139 6z"/>
<path d="M10815 1783 c-16 -9 -47 -31 -69 -50 -21 -19 -75 -52 -120 -73 -119
-55 -180 -122 -251 -275 -62 -131 -60 -170 11 -237 55 -51 80 -91 99 -156 8
-27 22 -55 30 -62 9 -7 44 -13 78 -14 48 -1 70 4 98 22 20 12 42 22 49 22 7 0
39 -28 71 -62 l58 -63 58 0 c51 0 66 5 125 43 47 30 77 43 105 43 60 1 144 28
198 64 61 40 80 60 100 108 19 46 19 85 0 130 -16 39 -10 72 20 97 24 20 45
65 45 96 0 18 -13 38 -39 63 -22 20 -44 54 -51 76 -20 64 -48 114 -75 131 -33
21 -107 15 -161 -14 -117 -63 -122 -64 -152 -47 -15 9 -40 39 -57 66 -56 94
-111 124 -170 92z"/>
<path d="M6986 1540 c-26 -11 -57 -18 -67 -15 -32 11 -96 -14 -126 -48 -16
-19 -35 -55 -43 -81 -11 -39 -21 -53 -64 -81 -78 -53 -90 -76 -95 -172 -5
-137 39 -203 175 -262 44 -19 85 -41 92 -50 6 -8 12 -35 12 -59 0 -55 11 -75
62 -112 49 -36 98 -39 148 -10 19 11 50 27 69 36 32 14 36 14 60 -4 77 -56
112 -62 198 -32 63 22 105 57 134 110 10 19 44 70 74 113 45 63 55 84 55 118
0 36 -5 46 -36 73 -90 76 -86 67 -80 164 6 103 -7 140 -62 174 -28 17 -48 21
-102 20 l-68 -2 -36 49 c-46 65 -83 84 -176 88 -58 2 -86 -1 -124 -17z"/>
<path d="M9137 1459 c-49 -26 -83 -79 -102 -163 -9 -38 -31 -99 -50 -135 -48
-97 -53 -145 -21 -209 39 -76 90 -107 173 -104 55 1 72 -3 119 -29 50 -28 60
-31 112 -24 109 13 197 77 248 181 23 48 26 62 20 119 -5 55 -3 72 15 107 l22
42 -23 43 c-13 24 -27 43 -31 43 -5 0 -16 18 -25 40 -19 48 -66 90 -100 90
-14 0 -40 -11 -58 -25 -39 -30 -65 -32 -97 -6 -70 54 -137 64 -202 30z"/>
<path d="M5660 1273 c-14 -9 -44 -34 -67 -55 -48 -43 -56 -45 -98 -20 -16 10
-41 21 -54 25 -36 9 -103 -24 -132 -64 -21 -30 -24 -45 -24 -119 l0 -85 -41
-20 c-57 -27 -83 -53 -104 -99 -25 -54 -17 -94 28 -136 85 -79 115 -102 155
-121 56 -25 85 -24 141 6 57 30 77 31 102 4 31 -34 69 -49 125 -49 51 0 54 2
103 56 28 30 83 88 123 127 39 40 75 85 78 100 10 39 -1 84 -28 117 -22 26
-23 32 -14 83 13 72 0 103 -74 179 -83 85 -162 110 -219 71z"/>
<path d="M1097 565 c-19 -7 -61 -29 -92 -50 -54 -36 -60 -37 -118 -32 -40 4
-72 1 -92 -7 -42 -18 -100 -88 -119 -144 -25 -72 -21 -108 19 -163 19 -27 35
-53 35 -58 0 -5 -18 -31 -40 -57 l-40 -49 491 -3 c271 -1 495 0 497 3 3 3 -4
18 -16 33 -12 15 -30 42 -39 60 -15 28 -15 37 -4 65 50 121 -10 207 -146 207
-64 1 -82 11 -122 70 -75 109 -143 149 -214 125z"/>
<path d="M2752 470 c-18 -11 -39 -37 -48 -57 -34 -79 -39 -86 -89 -105 -73
-28 -95 -56 -95 -126 0 -40 6 -66 20 -87 11 -16 20 -45 20 -62 l0 -33 350 0
c393 0 361 -7 374 81 9 63 -5 94 -56 120 -24 12 -45 23 -47 25 -2 2 -5 37 -6
77 -1 89 -23 134 -79 161 -37 18 -41 18 -91 2 -66 -20 -73 -20 -120 4 -50 25
-91 25 -133 0z"/>
<path d="M8467 115 c-21 -8 -56 -28 -77 -45 -35 -28 -43 -30 -122 -30 -72 0
-88 -3 -103 -20 -18 -20 -17 -20 268 -20 158 0 287 4 287 8 0 16 -46 51 -115
86 -78 40 -84 41 -138 21z"/>
<path d="M10094 85 c-34 -21 -74 -48 -90 -61 l-29 -23 328 -1 c193 0 327 4
327 9 0 16 -51 71 -81 86 -40 21 -78 18 -124 -10 -53 -32 -99 -32 -143 2 -23
17 -51 28 -81 30 -39 4 -55 -1 -107 -32z"/>
<path d="M4794 75 c-17 -13 -39 -36 -48 -50 l-16 -25 125 0 c73 0 125 4 125
10 0 5 -17 27 -38 50 -33 33 -45 40 -78 40 -26 0 -49 -8 -70 -25z"/>
</g>
</svg>
